# xmcd
#
# Track frame offsets: 
#        150
#        12405
#        34060
#        52185
#        58590
#        74497
#        96817
#        128210
#        152140
#        177280
#        199192
#        227347
#        257710
#
# Disc length: 3893 seconds
#
# Revision: 0
# Processed by: cddbd v1.4PL0 Copyright (c) Steve Scherf et al.
# Submitted via: ExactAudioCopy v0.90b2
#
DISCID=b40f330d
DTITLE=Dr. Ed Montgomery Presents ALC - I Still Believe
DYEAR=2000
DGENRE=Gospel
TTITLE0=God's Army (Drama)
TTITLE1=I Still Believe
TTITLE2=High On Your Love
TTITLE3=Have A Little Talk With Jesus (Intro)
TTITLE4=Talk With Jesus
TTITLE5=Right There For Me
TTITLE6=Abundantly Blessed
TTITLE7=Face2Face
TTITLE8=Sweeter
TTITLE9=That Name
TTITLE10=Anything
TTITLE11=Pray When Everything Goes Wrong
TTITLE12=All That God said
EXTD=
EXTT0=
EXTT1=
EXTT2=
EXTT3=
EXTT4=
EXTT5=
EXTT6=
EXTT7=
EXTT8=
EXTT9=
EXTT10=
EXTT11=
EXTT12=
PLAYORDER=
